# xmcd
#
# Track frame offsets:
#	150
#	14205
#	30932
#	51185
#	67275
#	76852
#	92947
#	108932
#	125385
#	140405
#
# Disc length: 2077 seconds
#
# Revision: 0
# Processed by: cddbd v1.5.2PL0 Copyright (c) Steve Scherf et al.
# Submitted via: EasyCDDAExtractor 10.2.0.1
#
DISCID=86081b0a
DTITLE=The Cooke Brothers - Chiseled In Stone
DYEAR=2000
DGENRE=Gospel
TTITLE0=Chiseled In Stone
TTITLE1=My God Still Moves
TTITLE2=Make Up Your Mind
TTITLE3=Go Rest High On That Mountain
TTITLE4=Gonna Be Moving
TTITLE5=Ride Out The Storm
TTITLE6=It'll Be Hard Not To Cry
TTITLE7=Peaceful River
TTITLE8=Best Seat In The House
TTITLE9=Don't Let Cain Kill Abel
EXTD=
EXTT0=
EXTT1=
EXTT2=
EXTT3=
EXTT4=
EXTT5=
EXTT6=
EXTT7=
EXTT8=
EXTT9=
PLAYORDER=
